#!OML:ASF F:\VICON\USERDATA\INSTALL\rory3\rory3.ASF
:FULLY-SPECIFIED
:DEGREES
406
root 0.374094 17.8554 -26.4642 -131.365 -24.7982 -215.571
lowerback -16.6866 -6.23142 -11.0809
upperback -14.1593 -11.6364 -10.3963
thorax -7.1951 -7.48158 -6.25515
lowerneck -11.4051 -2.03202 -9.53747
upperneck -17.9782 -4.83847 -1.52659
head -3.91444 -2.76986 1.17779
rclavicle 1.34434e-013 8.85089e-014
rhumerus -12.9281 -20.6788 11.4039
rradius 18.3917
rwrist 14.0617
rhand -3.49592 1.12334
rfingers 7.12502
rthumb 22.238 -27.6173
lclavicle 1.34434e-013 8.85089e-014
lhumerus -3.87922 -36.3597 -8.4057
lradius 19.8164
lwrist -47.8752
lhand 18.2222 29.6635
lfingers 7.12502
lthumb 42.8755 53.9533
rfemur -214.485 -199.956 -189.193
rtibia 23.7249
rfoot -82.6743 -36.4056
rtoes 53.8238
lfemur 5.9499 -10.5798 0.646056
ltibia 31.558
lfoot -8.58325 43.9925
ltoes 43.5209
407
root 0.384243 17.7697 -26.4816 -131.853 -24.3189 -215.048
lowerback -16.2751 -6.11687 -10.5923
upperback -14.2303 -11.6023 -10.2766
thorax -7.52011 -7.47498 -6.29377
lowerneck -10.8311 -1.90805 -9.24221
upperneck -16.7551 -4.38501 -1.50322
head -3.56955 -2.50333 1.12022
rclavicle -1.16382e-014 1.49387e-013
rhumerus -11.8678 -20.9049 8.58014
rradius 18.3175
rwrist 12.642
rhand -4.64568 0.395212
rfingers 7.12502
rthumb 21.1338 -28.473
lclavicle -1.16382e-014 1.49387e-013
lhumerus -6.14609 -36.8465 -5.79442
lradius 19.6085
lwrist -47.8574
lhand 18.3117 29.3408
lfingers 7.12502
lthumb 42.9592 53.6011
rfemur -215.361 -199.607 -188.692
rtibia 25.6336
rfoot -80.5109 -37.3149
rtoes 52.4454
lfemur 4.88509 -9.96676 -0.962425
ltibia 30.8003
lfoot -19.0735 40.783
ltoes 46.9096
408
root 0.382752 17.7096 -26.4798 -132.276 -24.5204 -214.579
lowerback -15.6582 -5.98772 -9.29439
upperback -14.2575 -11.6088 -10.2156
thorax -8.0336 -7.54371 -6.79927
lowerneck -10.6303 -1.94556 -9.09193
upperneck -15.0444 -4.04149 -1.41657
head -2.9914 -2.29273 1.09037
rclavicle 2.56929e-014 7.87312e-014
rhumerus -10.6326 -27.5366 6.25913
rradius 17.1359
rwrist 18.0685
rhand -5.04498 1.35375
rfingers 7.12502
rthumb 20.7502 -27.5568
lclavicle 2.56929e-014 7.87312e-014
lhumerus -8.16036 -36.7485 -3.06937
lradius 19.367
lwrist -48.0743
lhand 18.751 28.9171
lfingers 7.12502
lthumb 43.3698 53.031
rfemur -215.691 -198.635 -187.622
rtibia 27.1969
rfoot -78.2723 -37.6941
rtoes 51.1632
lfemur 3.38015 -9.44718 -2.00085
ltibia 30.2886
lfoot 5.37151 40.7211
ltoes 29.1976
409
root 0.422895 17.6061 -26.5167 -131.061 -21.2378 -216.006
lowerback -16.3265 -5.77113 -12.5736
upperback -14.5289 -11.3425 -10.785
thorax -7.77484 -7.35582 -5.75999
lowerneck -10.6609 -2.1286 -9.22674
upperneck -13.0686 -3.8404 -1.22483
head -2.29651 -2.15085 1.13568
rclavicle 3.74433e-014 5.83185e-014
rhumerus -10.2298 -25.908 3.67312
rradius 17.5878
rwrist 15.7749
rhand -5.86508 0.70378
rfingers 7.12502
rthumb 19.962 -28.2909
lclavicle 3.74433e-014 5.83185e-014
lhumerus -9.95201 -36.9488 -0.174828
lradius 19.0895
lwrist -47.7492
lhand 18.2241 28.7067
lfingers 7.12502
lthumb 42.8773 52.9959
rfemur -217.963 -198.742 -191.49
rtibia 28.7297
rfoot -76.9123 -37.8337
rtoes 50.4323
lfemur 1.21403 -8.77885 -7.31028
ltibia 29.7668
lfoot -14.7329 39.1853
ltoes 42.7852
410
root 0.410393 17.5548 -26.5115 -132.465 -22.7889 -213.858
lowerback -15.7395 -5.62752 -9.24986
upperback -14.4574 -11.2283 -10.1493
thorax -8.19003 -7.38617 -6.70492
lowerneck -10.4676 -1.9645 -8.73053
upperneck -11.3883 -3.34832 -1.30381
head -1.78051 -1.88656 1.00768
rclavicle -4.80115e-014 -5.15753e-014
rhumerus -9.21289 -24.9902 0.494592
rradius 17.8235
rwrist 14.5096
rhand -6.43765 0.244553
rfingers 7.12502
rthumb 19.4116 -28.8065
lclavicle -4.80115e-014 -5.15753e-014
lhumerus -12.6296 -37.4921 2.93982
lradius 18.7658
lwrist -46.5353
lhand 16.8996 28.6376
lfingers 7.12502
lthumb 41.6366 53.3482
rfemur -217.901 -198.952 -188.252
rtibia 29.9208
rfoot -75.5249 -38.1597
rtoes 49.5194
lfemur -0.0910684 -7.80832 -6.08666
ltibia 29.6196
lfoot -19.7145 35.8252
ltoes 44.89
